<svg xmlns="http://www.w3.org/2000/svg" width="1200" height="630" viewBox="0 0 1200 630">
  <defs>
    <linearGradient id="bg" x1="0%" y1="0%" x2="100%" y2="100%">
      <stop offset="0%" style="stop-color:#667eea"/>
      <stop offset="100%" style="stop-color:#764ba2"/>
    </linearGradient>
  </defs>
  <rect width="1200" height="630" fill="url(#bg)"/>
  <!-- 装饰试管图标 -->
  <g transform="translate(150, 180)">
    <rect x="0" y="0" width="60" height="200" rx="8" fill="rgba(255,255,255,0.15)" stroke="rgba(255,255,255,0.4)" stroke-width="2"/>
    <rect x="8" y="130" width="44" height="62" rx="4" fill="#FF6B6B"/>
    <rect x="8" y="80" width="44" height="46" rx="4" fill="#4ECDC4"/>
    <rect x="8" y="30" width="44" height="46" rx="4" fill="#FFE66D"/>
  </g>
  <g transform="translate(990, 180)">
    <rect x="0" y="0" width="60" height="200" rx="8" fill="rgba(255,255,255,0.15)" stroke="rgba(255,255,255,0.4)" stroke-width="2"/>
    <rect x="8" y="120" width="44" height="72" rx="4" fill="#95E1A3"/>
    <rect x="8" y="60" width="44" height="55" rx="4" fill="#C589E8"/>
    <rect x="8" y="20" width="44" height="35" rx="4" fill="#FFA07A"/>
  </g>
  <text x="600" y="270" font-size="110" text-anchor="middle" fill="white" font-family="sans-serif" font-weight="bold">🎨 色彩排序</text>
  <text x="600" y="350" font-size="42" text-anchor="middle" fill="white" opacity="0.9" font-family="sans-serif">经典液体排序解谜游戏</text>
  <text x="600" y="420" font-size="32" text-anchor="middle" fill="white" opacity="0.7" font-family="sans-serif">100关卡 · 每日挑战 · 无尽模式 · 限时挑战</text>
  <text x="600" y="490" font-size="28" text-anchor="middle" fill="white" opacity="0.6" font-family="sans-serif">免费即玩 · 支持手机和电脑</text>
</svg>
